<svg width="40" height="50" viewBox="0 0 40 50" fill="none" xmlns="http://www.w3.org/2000/svg">
<path fill-rule="evenodd" clip-rule="evenodd" d="M27.5 0C28.3777 2.22961e-05 29.2399 0.231064 29.9999 0.669905C30.76 1.10875 31.3912 1.73992 31.83 2.5H35C36.3261 2.5 37.5979 3.02678 38.5355 3.96447C39.4732 4.90215 40 6.17392 40 7.5V37.5C40 40.8152 38.683 43.9946 36.3388 46.3388C33.9946 48.683 30.8152 50 27.5 50H5C3.67392 50 2.40215 49.4732 1.46447 48.5355C0.526784 47.5979 0 46.3261 0 45V7.5C0 6.17392 0.526784 4.90215 1.46447 3.96447C2.40215 3.02678 3.67392 2.5 5 2.5H8.17C8.60883 1.73992 9.24 1.10875 10.0001 0.669905C10.7601 0.231064 11.6223 2.22961e-05 12.5 0H27.5ZM7.5 7.5H5V45H27.5C29.4891 45 31.3968 44.2098 32.8033 42.8033C34.2098 41.3968 35 39.4891 35 37.5V7.5H32.5C32.5 8.82608 31.9732 10.0979 31.0355 11.0355C30.0979 11.9732 28.8261 12.5 27.5 12.5H12.5C11.1739 12.5 9.90215 11.9732 8.96447 11.0355C8.02678 10.0979 7.5 8.82608 7.5 7.5ZM30.595 18.4475C31.0637 18.9163 31.327 19.5521 31.327 20.215C31.327 20.8779 31.0637 21.5137 30.595 21.9825L18.22 34.3575C17.7512 34.8262 17.1154 35.0895 16.4525 35.0895C15.7896 35.0895 15.1538 34.8262 14.685 34.3575L9.385 29.0525C8.94053 28.5792 8.69763 27.9515 8.70772 27.3023C8.7178 26.6531 8.98007 26.0333 9.43902 25.574C9.89798 25.1147 10.5176 24.852 11.1668 24.8415C11.816 24.8309 12.4439 25.0734 12.9175 25.5175L16.455 29.0525L27.06 18.4475C27.5288 17.9788 28.1646 17.7155 28.8275 17.7155C29.4904 17.7155 30.1262 17.9788 30.595 18.4475ZM27.5 5H12.5V7.5H27.5V5Z" fill="#EEEEEE"/>
</svg>
