<svg width="42" height="42" viewBox="0 0 42 42" fill="none" xmlns="http://www.w3.org/2000/svg">
<path d="M20.3341 12.1113H30.1071M20.3341 20.9999H30.1071M20.3341 29.8886H30.1071M12.4941 13.4453C12.8479 13.4453 13.1872 13.3048 13.4374 13.0546C13.6876 12.8044 13.8281 12.4651 13.8281 12.1113C13.8281 11.7575 13.6876 11.4181 13.4374 11.168C13.1872 10.9178 12.8479 10.7772 12.4941 10.7772C12.1403 10.7772 11.801 10.9178 11.5508 11.168C11.3006 11.4181 11.16 11.7575 11.16 12.1113C11.16 12.4651 11.3006 12.8044 11.5508 13.0546C11.801 13.3048 12.1403 13.4453 12.4941 13.4453ZM12.4941 22.334C12.8479 22.334 13.1872 22.1934 13.4374 21.9432C13.6876 21.6931 13.8281 21.3537 13.8281 20.9999C13.8281 20.6461 13.6876 20.3068 13.4374 20.0566C13.1872 19.8064 12.8479 19.6659 12.4941 19.6659C12.1403 19.6659 11.801 19.8064 11.5508 20.0566C11.3006 20.3068 11.16 20.6461 11.16 20.9999C11.16 21.3537 11.3006 21.6931 11.5508 21.9432C11.801 22.1934 12.1403 22.334 12.4941 22.334ZM12.4941 31.2226C12.8479 31.2226 13.1872 31.0821 13.4374 30.8319C13.6876 30.5817 13.8281 30.2424 13.8281 29.8886C13.8281 29.5348 13.6876 29.1954 13.4374 28.9453C13.1872 28.6951 12.8479 28.5545 12.4941 28.5545C12.1403 28.5545 11.801 28.6951 11.5508 28.9453C11.3006 29.1954 11.16 29.5348 11.16 29.8886C11.16 30.2424 11.3006 30.5817 11.5508 30.8319C11.801 31.0821 12.1403 31.2226 12.4941 31.2226Z" stroke="#EEEEEE" stroke-width="2" stroke-linecap="round" stroke-linejoin="round"/>
<path d="M28.027 1H13.973C6.8082 1 1 6.8082 1 13.973V28.027C1 35.1918 6.8082 41 13.973 41H28.027C35.1918 41 41 35.1918 41 28.027V13.973C41 6.8082 35.1918 1 28.027 1Z" stroke="#EEEEEE" stroke-width="2"/>
</svg>
